# xmcd
#
# Track frame offsets: 
#        150
#        9816
#        22055
#        34074
#        47239
#        59673
#        72655
#        81980
#        93181
#        104762
#        115278
#        127325
#        141095
#        150612
#        160731
#        170203
#        180692
#        189615
#        200569
#
# Disc length: 2800 seconds
#
# Revision: 0
# Processed by: cddbd v1.5.2PL0 Copyright (c) Steve Scherf et al.
# Submitted via: ExactAudioCopy v1.0b3
#
DISCID=1c0aee13
DTITLE=Sonny James - CD2_Sonny1957 - Singles'54-56
DYEAR=2015
DGENRE=Country
TTITLE0=Near You
TTITLE1=(Now And Then There's) A Fool Such As I 
TTITLE2=Heartaches 
TTITLE3=Ages And Ages Ago
TTITLE4=I'll Never Get Over You 
TTITLE5=Secret Love
TTITLE6=Beg Your Pardon
TTITLE7=Just Out Of Reach
TTITLE8=How's The World Treating You 
TTITLE9=I Forgot More Than You'll Ever Know
TTITLE10=Almost 
TTITLE11=Because Of You 
TTITLE12=I Forgot To Remember Santa Claus
TTITLE13=Lovin'Season
TTITLE14=Ain't Gonna Take No Chance
TTITLE15=Let's Go Bunny Huggin'
TTITLE16=Pigtails And Ribbons 
TTITLE17=For Reny (One Empty Heart)
TTITLE18=Twenty Feet Of Muddy Water 
EXTD=
EXTT0=
EXTT1=
EXTT2=
EXTT3=
EXTT4=
EXTT5=
EXTT6=
EXTT7=
EXTT8=
EXTT9=
EXTT10=
EXTT11=
EXTT12=
EXTT13=
EXTT14=
EXTT15=
EXTT16=
EXTT17=
EXTT18=
PLAYORDER=
